<?xml version="1.0" encoding="utf-8"?>
<!-- Generator: Adobe Illustrator 22.0.0, SVG Export Plug-In . SVG Version: 6.00 Build 0)  -->
<svg version="1.1" id="Layer_1" xmlns="http://www.w3.org/2000/svg" xmlns:xlink="http://www.w3.org/1999/xlink" x="0px" y="0px"
	 viewBox="0 0 516 154" style="enable-background:new 0 0 516 154;" xml:space="preserve">
<style type="text/css">
	.st0{fill:#409EFF;}
</style>
<g>
	<g>
		<path class="st0" d="M374.9,66.1c0.1-0.1,0.3-0.2,0.4-0.3c0.7-0.5,1.5-0.7,2.3-0.7c0.8,0,1.6,0.3,2.5,1c1.2,1,1.9,2.3,1.9,3.9v0.6
			c-0.1,0.6-0.2,1.2-0.3,1.9c-0.3,1.4-0.8,3.2-1.4,5.3l-2.3,7.1c-2.5,9.3-3.9,16.7-4.1,22.2v1.2c0,3.2,0.4,5.6,1.1,7.3
			c0.2,0.4,0.3,0.7,0.5,1c0.6,0.8,1.5,1.3,2.7,1.4h0.3c1.1,0,2.2-0.3,3.3-0.9c0.9-0.5,1.8-1.1,2.7-1.9c0.7-0.7,1.5-1.6,2.5-2.8
			l2-2.8c1.6-2.2,3.3-4.8,5.1-7.8l4.7-8.1c0.1-0.1,0.1-0.2,0.2-0.3c0.2-0.8,0.5-1.6,0.8-2.4c2.1-5.7,5-10.7,8.6-14.9
			c2.4-2.7,4.9-4.9,7.7-6.6c2-1.3,4.2-2.3,6.4-3c2.5-0.8,4.9-1.2,7-1.2c2.8,0,5.5,0.6,8,1.8c4.8,2.4,7.5,6.4,8.2,12.1v0.6v0.1
			c0,1-0.4,1.8-1.1,2.4c-0.3,0.3-0.7,0.6-1.1,0.7c-0.5,0.2-1,0.3-1.7,0.3c-1.2,0-2.2-0.3-3.1-1.1c-1-0.8-1.5-1.8-1.6-3
			c-0.2-2.3-1.5-3.9-3.8-4.7c-1.1-0.4-2.3-0.6-3.6-0.6c-0.9,0-1.8,0.1-2.9,0.3c-2.2,0.5-4.3,1.3-6.3,2.6c-2.2,1.4-4.3,3.3-6.4,5.8
			c-3.1,3.7-5.4,7.9-6.9,12.6c-1,3.1-1.5,6-1.5,8.8c0,1.9,0.2,3.7,0.7,5.4c0.2,0.9,0.6,1.8,1,2.6c1.5,2.8,3.9,4.7,7.4,5.5
			c1.3,0.3,2.6,0.5,4,0.5c2.7,0,5.5-0.6,8.2-1.9c0.8-0.4,1.7-0.8,2.5-1.3c7.1-4.1,13.6-11.1,19.4-20.9c0.1-0.1,0.1-0.3,0.3-0.4
			c0-0.2,0.1-0.3,0.1-0.5c2.6-8,6.8-14.6,12.5-19.8c1.6-1.5,3.3-2.8,5-3.8c4-2.5,8.2-3.8,12.5-3.8l2.2,0.1c3.9,0.3,7.1,1.9,9.6,4.7
			c2.4,2.7,3.7,5.8,3.8,9.4V80v0.3c0,5-1.9,9.8-5.6,14.4c-2.2,2.8-4.7,5-7.5,6.6c-3.2,1.8-6.7,2.8-10.6,3.2l-2.5,0.1
			c-4.2,0-8.4-0.8-12.6-2.4l0,0.9l-0.1,1.4c0,3.1,0.5,5.7,1.6,7.8c0.6,1.2,1.4,2.2,2.4,3c1.8,1.5,4.1,2.3,6.8,2.6l1.9,0.1
			c1.9,0,3.7-0.3,5.4-0.9c1.9-0.6,3.9-1.4,5.8-2.5c2.9-1.7,5.8-4,8.6-6.8c3.8-3.8,7.3-8.5,10.4-13.9c0.1-0.1,0.2-0.3,0.3-0.4
			c5-9,7.5-18.7,7.6-29.1v-0.6c0-11.1-2.9-20.5-8.8-28.1c-5.9-7.6-14.5-12.2-25.6-14c-3.5-0.5-7.4-0.7-11.7-0.7l-11.8,0.4
			c-7.8,0.3-15.7,1-23.6,1.9c-11,1.3-24.4,3.7-40.1,7.3l-39.6,9.6c-8.1,1.9-15.8,3.4-23.1,4.5c-0.1,0.2-0.1,0.3-0.2,0.5
			c-0.5,1.1-1,2.3-1.7,3.7l-3.6,7.5c-5.5,11.4-12.8,25.1-22,41c0.2,5.6,0.9,10.3,2.3,14.1c0.1,0.4,0.3,0.8,0.5,1.2
			c0.9,1.9,1.9,3.4,3,4.4c0.4,0.3,0.8,0.5,1.2,0.7c0.5,0.2,0.9,0.3,1.3,0.3l0.5-0.1c0.7-0.1,1.5-0.4,2.2-0.7
			c1.1-0.6,2.2-1.5,3.3-2.6l3.1-4.1l0.8-1.4c1.4-2.1,2.9-4.6,4.5-7.6l4.3-7.8c0.1-0.2,0.3-0.5,0.5-0.7c2.3-6.5,6-12.3,11-17.5
			c2.4-2.5,4.9-4.5,7.4-6.1c4.5-2.8,9.2-4.2,14.1-4.2h0.3c6.9,0.1,11.9,3.3,15.1,9.6c0.2,0.3,0.3,0.6,0.4,1l2.2-6.4l0.6-1.4
			C373.8,67.2,374.3,66.5,374.9,66.1z M347.7,115.8c2.8-1.6,5.5-4.1,8.1-7.5c2.1-2.8,4.2-6.2,6.2-10.3c0.9-2,1.7-3.8,2.3-5.2
			l1.9-4.8c0.6-1.4,1.2-3.1,1.8-5l-0.7,0.1c-0.6,0-1.2-0.1-1.9-0.4c-1.1-0.5-1.9-1.3-2.3-2.6c-1.1-3.2-3.2-5.3-6.1-6.1
			c-0.8-0.2-1.7-0.3-2.8-0.3c-1.9,0-3.9,0.5-6.1,1.4c-1.2,0.5-2.4,1.1-3.5,1.8c-4.4,2.8-8.2,7.1-11.4,12.8c-1.3,2.3-2.3,4.7-3.1,7.3
			c-1,3-1.5,5.9-1.6,8.5v0.7c0,2.8,0.5,5.1,1.6,6.8c1.4,2.3,3.6,3.7,6.8,4.4c1.1,0.2,2.1,0.3,3.2,0.3
			C342.8,117.9,345.3,117.2,347.7,115.8z M397.3,113c-0.2,0.3-0.4,0.6-0.6,0.8c-3.4,4.9-7,8.4-10.7,10.5c-0.9,0.5-1.8,0.9-2.7,1.3
			c-1.6,0.6-3.2,0.9-4.7,0.9c-1.4,0-2.9-0.3-4.4-0.8c-3.1-1.1-5.4-3.1-6.9-6c-1.3-2.6-2-5.7-2.2-9.3v-0.9c-0.3,0.5-0.7,1-1,1.5
			c-3.2,4.7-6.7,8.4-10.3,11c-0.7,0.5-1.4,0.9-2.1,1.3c-3.6,2.1-7.5,3.1-11.6,3.1c-0.9,0-2-0.1-3.3-0.3c-6.7-0.9-11.5-4-14.3-9.4
			c-0.6-1.1-1.1-2.3-1.5-3.5c-0.3,0.4-0.5,0.8-0.8,1.2c-0.3,0.5-0.6,0.9-1,1.4c-2.8,4.1-5.8,7-8.9,8.7c-2.2,1.2-4.5,1.8-6.8,1.8
			h-0.4c-6-0.2-10.5-3.9-13.5-11c-0.9-2.3-1.6-4.9-2.2-7.6c-0.3,0.4-0.6,0.7-0.9,1.1c-3,3.7-6.2,6.8-9.6,9.5
			c-1.7,1.4-3.5,2.6-5.3,3.6c-5.1,2.9-10.2,4.4-15.3,4.4c-1.1,0-2.5-0.1-4.1-0.4c-8.1-1.3-13.4-5.3-15.9-12.1
			c-0.7-1.9-1.2-4-1.4-6.2l1-8.3l-8.5-2.8c-0.1,0.3-0.2,0.6-0.3,0.9c-0.6,2-1.4,4-2.3,6l-5.5,9.7c-3.2,4.6-6.8,8-10.8,10.3
			c-0.5,0.3-0.9,0.5-1.4,0.8c-2.8,1.4-5.8,2-8.8,2c-1.4,0-3-0.2-4.7-0.5c-4.9-1-8.8-3.4-11.6-6.9c-1.6-2-2.8-4.2-3.6-6.7
			c-0.1,0.1-0.1,0.1-0.2,0.3c-0.2,0.3-0.4,0.6-0.6,0.9c-2.7,4.1-5.2,7.1-7.6,9.1c-1,0.8-2,1.5-3,2.1c-2.2,1.2-4.4,1.8-6.6,1.8
			c-0.7,0-1.6-0.1-2.5-0.3c-5.3-1-8.2-4.6-8.9-10.9c-0.1-0.9-0.2-1.8-0.2-2.8c0-4.2,0.8-9.2,2.4-15l2.5-8.9c1-3.4,1.7-6.3,2.1-8.7
			c0.2-1.2,0.3-2.5,0.3-3.8v-0.7c0-1-0.1-1.6-0.3-1.7c-0.1-0.1-0.3-0.1-0.4-0.1c-0.3,0-0.8,0.2-1.4,0.7l-0.1,0.1l-1.8,1.6
			c-1.7,1.4-3.7,3.6-6,6.6c-3.6,4.6-7.5,10.5-11.8,17.8c-1.7,2.9-3.4,6-5.2,9.3l-6.5,12c-0.5,0.9-1.1,1.8-1.7,2.6
			c-0.7,0.9-1.5,1.5-2.3,1.8c-0.6,0.3-1.1,0.4-1.8,0.4c-0.4,0-0.8-0.1-1.3-0.2c-1.6-0.4-2.8-1.5-3.6-3.2c-0.6-1.3-1.1-2.9-1.4-4.9
			c-0.4-2.8-0.6-5.9-0.6-9.3v-0.3c-0.3,0.3-0.7,0.5-1,0.7c-0.6,0.4-1.1,0.7-1.7,1.1c-2.3,1.3-4.7,2.1-7.2,2.4c0,0.2,0,0.3,0,0.4
			c-0.9,6.6-3.1,12.6-6.8,18.1c-3.8,5.5-8.6,10.1-14.6,13.5c-1.6,1-3.3,1.8-5.1,2.6c-8.3,3.7-17.3,5.5-26.9,5.5
			c-13.3-0.1-24.2-3.1-32.5-9C4.8,137.3,0,128.2,0,116.9v-1.6c0.3-7.7,2.6-15,6.8-21.9c2.6-4.2,5.9-7.6,9.9-10.2
			c2.5-1.5,5.2-2.8,8.2-3.7c4.1-1.2,8.2-1.8,12.3-1.8c4.3,0,8.7,0.8,13.2,2.4c4.5,1.6,9.7,4.3,15.3,8.1l14.8,9.9
			c3.7,2.4,7.1,4.1,10.2,5.1c0.4,0.1,0.7,0.2,1.1,0.4c-0.7-6.9-3.2-12.8-7.5-17.7c-4.3-5-9.8-8.6-16.4-10.9l-6.4-2.2
			c-5.9-2.1-10.2-4.1-13.1-6.1c-7.7-5.2-12-12.4-12.9-21.6l-0.2-2.7c0-8.8,3.6-16.2,10.7-22.1c1.2-1,2.5-2,3.9-2.8
			c5.5-3.4,11.8-5.2,18.8-5.2c6.6,0,12.5,1.9,17.8,5.7c5.1,3.7,8.1,8.9,8.9,15.7c0,0.2,0.1,0.4,0.1,0.6l0.2,2.8
			c0,5.1-1.3,9.5-3.9,13.1c-1.9,2.5-3.6,4.2-5.2,4.9c-0.7,0.4-1.4,0.5-2,0.5c-0.4,0-0.8-0.1-1.2-0.2l-0.7,0.7L82,57l-7.9,7.4
			c-0.3,0.1-0.5,0.3-0.7,0.3c-1.1,0.4-1.9,0.1-2.3-0.8c-0.5-0.6-0.5-1.4,0.1-2.3l0.1-0.1c0.1-0.2,0.3-0.4,0.6-0.6l8.7-8.2
			c-0.1-0.4-0.2-0.9-0.2-1.3c0-1.1,0.4-2.1,1.3-2.9c3.8-3.4,5.7-7.3,5.7-11.8c0-4.4-1.7-8.1-5-11.1s-7.9-4.5-13.7-4.6
			c-5.5,0-10.3,1.3-14.3,3.8c-1.2,0.8-2.4,1.7-3.5,2.7c-4.6,4.3-7,9.5-7,15.6c0,2.6,0.5,5.1,1.6,7.5c0.9,2,2.3,4,4,5.8
			c3.7,3.9,9.5,7,17.3,9.2c2.1,0.6,4.2,1.3,6.1,2.1c1.4,0.6,2.7,1.1,4,1.8c6.1,3.1,11.1,7.1,15,12.1c4.3,5.6,7,11.8,8.2,18.5
			c0.2,1.3,0.4,2.5,0.4,3.9c0.2-0.1,0.4-0.1,0.6-0.2c0.6-0.2,1.3-0.5,1.9-0.8c3-1.6,5.7-4.6,8.3-8.8c0-0.3,0.1-0.7,0.1-1.1l1-8.3
			c2.2-16.4,5.3-30.7,9.2-42.9l2.4-7.5c1.1-2.9,2.2-5.5,3.3-7.8c2.7-5.6,5.9-9.6,9.7-12c0.2-0.1,0.3-0.2,0.5-0.3
			c2-1.2,4-1.8,6.1-1.8l1,0.1c2.7,0.3,4.8,1.4,6.3,3.5c1.3,1.9,1.9,4.2,1.9,7l-0.1,1.9c-0.2,1.6-0.4,3.1-0.8,4.8l-1.3,4.4
			c-2.3,7.3-6.4,17-12.5,28.9c-4.6,9.2-10.7,20.5-18.5,34l-0.2,3.3c-0.3,3.1-0.4,6.1-0.4,9.1v1.3c3.8-7.1,6.9-12.5,9.2-16.4
			c4.2-7.1,8.1-12.9,11.7-17.5c2.1-2.6,3.9-4.7,5.3-6c1.3-1.3,2.6-2.4,3.9-3.2c0.9-0.6,1.8-1,2.7-1.4c1.4-0.6,2.8-0.9,4.3-0.9
			c0.8,0,1.6,0.1,2.3,0.3c2.3,0.6,4.1,1.8,5.3,3.8c1,1.7,1.5,3.7,1.5,6.2v0.1v0.4c0,1.1-0.1,2.3-0.3,3.5l-5.7,24
			c-0.3,1.2-0.6,2.4-0.8,3.8c-0.4,2.1-0.6,4-0.6,5.5c0,0.9,0,1.6,0.1,2c0.1,1.2,0.6,2,1.6,2.4c0.3,0.1,0.6,0.2,1,0.3l1.8-0.1
			c0.4-0.1,0.7-0.2,0.9-0.3c0.1-0.1,0.3-0.1,0.4-0.2c1.5-0.9,3.1-2.5,4.8-4.6l3.5-5.7c1.3-2.1,2.5-4.3,3.7-6.5l3.5-6.3
			c0.6-2.3,1.5-4.5,2.5-6.9c2.7-6.1,6.5-11.1,11.3-15.1c1.1-0.9,2.2-1.7,3.4-2.4c3.5-2.2,7.2-3.5,11.1-4.1l1.9-0.3
			c0.9-0.1,1.5-0.1,1.9-0.1c3,0,6,0.7,8.9,2.2c5.6,2.7,8.7,7.5,9.3,14.3c0.1,0.9,0.1,1.8,0.1,2.8l-0.1,1.8c0,0.7-0.1,1.3-0.1,2
			l1.8,0.6l5.9,2l0.7,0.2c2.6-7.2,6.5-13.2,11.8-18.1c1.6-1.5,3.3-2.8,5-3.8c4.1-2.6,8.3-3.8,12.6-3.8l2.1,0.1
			c3.9,0.3,7.1,1.9,9.6,4.7c2.4,2.7,3.7,5.8,3.8,9.5V80v0.3c0,5-1.9,9.8-5.5,14.4c-2.2,2.8-4.7,5-7.5,6.6c-3.1,1.8-6.7,2.8-10.6,3.2
			l-2.5,0.1c-3.5,0-7-0.6-10.5-1.7c-0.1,0-0.3-0.1-0.4-0.1l-0.6-0.2c-0.4-0.1-0.7-0.3-1.1-0.4v0.1c0,0.2-0.1,0.5-0.1,0.9v0.6v0.8
			c0,3.1,0.5,5.7,1.6,7.8c0.6,1.2,1.4,2.2,2.4,3c1.8,1.5,4.1,2.4,6.8,2.6l1.9,0.1c1.9,0,3.8-0.3,5.5-0.9c1.9-0.6,3.9-1.4,5.8-2.5
			c2.9-1.7,5.8-4,8.6-6.8c3.5-3.5,6.8-7.9,10-13.2v-1.8c0.2-5.9,1-13.6,2.5-23.2c1.4-8.2,3-15.6,5-22.2h-2.2c-9.4,0-17.1-1-23.1-2.9
			c-6.8-2.1-12.8-5.4-18-9.9c-5.8-4.9-9.8-10.5-12-16.6c-0.2-0.5-0.3-1-0.3-1.5c0-0.7,0.2-1.3,0.5-1.8c0.1-0.1,0.2-0.3,0.3-0.4
			l-0.5-1.1l-2.2-4.9l-0.5-1.2L234,2.9c0-0.3-0.1-0.5-0.1-0.7c0-0.6,0.1-1.1,0.3-1.4c0.2-0.4,0.6-0.6,1.2-0.6c0.8-0.3,1.5,0,2.1,0.9
			l0,0c0.1,0.2,0.3,0.5,0.4,0.8l4.8,10.9c0.7,0,1.2,0.2,1.7,0.4c1.1,0.4,1.8,1.3,2.3,2.6l0.1,0.3c0.9,1.7,1.4,2.8,1.6,3.1
			c1.7,2.9,3.9,5.6,6.6,8.2c8.4,7.8,20,11.7,34.8,11.7h0.4c1.9,0,3.8,0,5.7-0.1c0.3,0,0.5,0,0.8,0c2.2-5.9,4.8-11.1,7.6-15.4
			c1.7-2.7,3.4-4.8,5.2-6.3c0.9-0.8,1.7-1.5,2.6-2.1c1.4-0.9,2.9-1.5,4.3-1.9c0.9-0.2,1.8-0.4,2.6-0.4c2.5,0,4.6,0.9,6.3,2.8
			c1.9,2.1,2.8,4.7,2.8,7.8v0.2l0,1.1c-0.3,3.4-1,7-2.2,10.9c1-0.2,2-0.3,3.1-0.5c0.1,0,0.2,0,0.3,0c6-1.2,12.3-2.5,18.8-4l18.8-4.6
			c33.6-8.4,63.1-12.9,88.5-13.5l3.6-0.1c14.3,0,25.4,2.3,33.3,6.9c8.6,5,14.9,12.4,18.9,22.1c1.5,3.5,2.6,7.2,3.3,11
			c0.7,3.6,1,7.4,1,11.3c0,2.1-0.1,4.2-0.3,6.4c-1,9.9-3.9,19.1-8.6,27.6c-0.1,0.2-0.3,0.5-0.4,0.7c-5,8.4-10.6,15-17,19.9
			c-1.8,1.4-3.5,2.6-5.3,3.6c-5.1,2.9-10.1,4.4-15.2,4.4c-1.1,0-2.5-0.1-4.1-0.4c-8.1-1.3-13.4-5.3-15.9-12.1
			c-0.5-1.2-0.8-2.5-1-3.8c-0.3,0.4-0.6,0.7-0.9,1c-4,4.4-8.2,7.9-12.7,10.6c-1.6,0.9-3.2,1.7-4.8,2.4c-3.5,1.5-7,2.2-10.5,2.2
			c-1.4,0-2.9-0.1-4.4-0.4c-5.5-0.9-9.8-3.4-12.8-7.4c-1.5-2-2.6-4.3-3.4-6.8C397.9,112.2,397.6,112.6,397.3,113z M461.6,95
			c2.3,0.6,4.6,1,6.9,1l2.1-0.1c2.5-0.2,4.8-0.9,6.8-2c2.6-1.4,4.7-3.5,6.4-6.3c1-1.6,1.8-3.3,2.1-4.9c0.2-0.8,0.4-1.7,0.4-2.6
			c0-0.9-0.1-1.8-0.5-2.6c-0.9-2.3-2.8-3.6-5.8-3.7h-0.3c-2.2,0-4.5,0.6-6.9,1.7c-0.9,0.4-1.7,0.9-2.5,1.4c-3.8,2.4-7,5.9-9.7,10.4
			c-1.2,2-2.1,4.1-2.9,6.2C459,94.1,460.3,94.6,461.6,95z M311.3,37.5c1.3-0.2,2.7-0.3,4.1-0.5c0.3,0,0.5-0.1,0.8-0.1
			c0.2-0.5,0.4-1,0.6-1.5l1-3c0.4-1.3,0.7-2.3,0.9-3c0.6-2.1,1-4.1,1.1-6.2c0-1.1-0.4-1.6-1.3-1.6l-0.8,0.1c-0.5,0.1-1,0.4-1.6,0.8
			c-1.1,0.8-2.2,2.1-3.5,3.9c-1.5,2.2-2.9,4.7-4.3,7.5c-0.6,1.3-1.3,2.6-1.9,4C308,37.9,309.6,37.7,311.3,37.5z M249.5,95
			c2.3,0.6,4.6,1,6.9,1l2.1-0.1c2.5-0.2,4.8-0.9,6.9-2c2.5-1.4,4.7-3.5,6.4-6.3c1.1-1.7,1.8-3.3,2.1-4.9c0.3-0.8,0.4-1.7,0.4-2.6
			c0-0.9-0.1-1.8-0.4-2.6c-0.9-2.3-2.9-3.6-5.8-3.7h-0.3c-2.2,0-4.5,0.6-6.9,1.7c-0.9,0.4-1.7,0.9-2.5,1.4c-3.8,2.4-7,5.9-9.7,10.4
			c-1.2,2-2.2,4.1-2.9,6.2c0.7,0.3,1.3,0.6,2,0.8C248.2,94.6,248.8,94.8,249.5,95z M302.8,47.4c-2.7,8.3-4.8,17.7-6.2,28.1l0,0.2
			l-0.2,1.7c5.3-9.7,9.6-18,12.9-24.8c1.1-2.3,2.1-4.5,3-6.5c-1.3,0.1-2.5,0.3-3.8,0.4c-1.9,0.2-3.7,0.3-5.5,0.4
			C302.9,47.1,302.9,47.3,302.8,47.4z M208.9,81.3c0.3,0.1,0.7,0.2,1.1,0.3L220,85l1,0.3v-0.5c0-6-2.3-9.5-7-10.7
			c-1.1-0.3-2.1-0.4-2.9-0.4c-1.6,0-2.9,0.4-4.1,1.2c-0.6,0.4-1.1,0.9-1.5,1.6C204.7,78.6,205.8,80.2,208.9,81.3z M236.8,6.5
			l0.5,1.1l2.2,5c0.1-0.1,0.2-0.2,0.4-0.3c0.3-0.2,0.7-0.3,1.1-0.4l-4.8-10.7c-0.4-0.1-0.7-0.1-0.9,0c-0.2,0.1-0.3,0.3-0.4,0.6
			c0,0,0,0.1,0,0.1L236.8,6.5z M236.6,1.2l4,9.1l0.6-0.4l-4.4-8.9L236.6,1.2z M141.4,22.1c-1.7,1.3-3.4,3.4-5.1,6.5
			c-4.1,7.3-7.8,18.5-11.2,33.8c-0.5,2.6-1.2,5.9-2,10c-0.1,0.6-0.2,1.2-0.3,1.9c5.6-10.3,10.2-19.4,13.6-27.1l4.8-10.9
			c1.6-4.3,2.6-8.1,2.9-11.5l0.1-1.7c0-0.5-0.1-1-0.1-1.4l-0.1-0.2l-0.1-0.3h-0.6l-0.1,0.1l-0.3,0.2l-0.4,0h-0.1v0
			C142.1,21.6,141.7,21.8,141.4,22.1z M80.3,57.9c0-0.8-0.4-0.8-1.3,0c-0.4,0.4-1,1-1.7,1.7c-0.2,0.2-0.7,0.6-1.4,1.3
			c-0.8,0.8-1.2,1.3-1.2,1.5l0.1,0.4c0.2,0.1,0.3,0.1,0.4,0.1c0,0,0.9-0.8,2.6-2.4C79.5,58.8,80.3,58,80.3,57.9z M80.3,54.7
			c0-0.7-1.4,0.3-4.2,2.8c-2.8,2.5-4.2,3.9-4.2,4.1c0,0.3,0.2,0.5,0.5,0.5C72.5,62,75.1,59.6,80.3,54.7z M74.2,63.3
			c0-0.3-0.1-0.4-0.4-0.4c-0.3,0-0.6,0.2-0.8,0.5c-0.5,0-0.9,0-1.1,0.2c-0.1,0.1-0.2,0.1-0.2,0.2c0,0.2,0.1,0.4,0.4,0.5h0.9
			C73.8,63.9,74.2,63.6,74.2,63.3z M10.3,126.3c1.7,4.2,4.6,7.8,8.7,10.7c7,5,16.5,7.4,28.6,7.4c9.5,0,17.6-1.7,24.1-5.1
			c0.7-0.3,1.3-0.7,1.9-1.1c5.6-3.3,10-7.4,13.3-12.5c2.7-4.3,4.4-8.7,5-13.4c-2.2-0.6-4.2-1.3-6.1-2.1c-4.2-1.7-9.4-4.7-15.7-8.9
			l-10.3-6.9c-4.3-2.8-8.3-4.8-11.8-6.2c-3.6-1.3-7.1-2-10.6-2h-1.5c-5.5,0.3-10.3,1.7-14.3,4.2c-2.4,1.5-4.5,3.4-6.3,5.7
			c-4.6,5.7-6.9,12.4-6.9,20.2C8.4,120.1,9.1,123.4,10.3,126.3z M187.9,112c1.3,2.5,3.4,4.3,6.3,5.2c1.4,0.4,2.7,0.6,4,0.6
			c2.2,0,4.4-0.6,6.5-1.8c1.4-0.8,2.7-1.8,4.1-3l1.5-1.5l5-7.3c0.5-1,1-1.9,1.4-2.8c0.4-0.9,0.8-1.7,1.1-2.4c0.7-1.7,1.2-3.4,1.7-5
			l-20.3-6.6c-2.2-1.3-3.6-3.2-4.3-5.5c-0.3,0.3-0.6,0.7-0.9,1c-2.9,3.6-5,7.7-6.4,12.3c-0.9,3.1-1.4,6.1-1.4,8.9
			c0,1.3,0.1,2.6,0.3,3.8C186.8,109.5,187.2,110.9,187.9,112z"/>
	</g>
</g>
</svg>
