<svg id="Layer_1" data-name="Layer 1" xmlns="http://www.w3.org/2000/svg" xmlns:xlink="http://www.w3.org/1999/xlink" viewBox="0 0 554.11 1151.16"><defs><symbol id="x" data-name="x" viewBox="0 0 0.05 0.06"><path d="M.05,0H0V.05H0V0h0Z"/></symbol><symbol id="c" data-name="c" viewBox="0 0 0.03 0.05"><path d="M0,0H0V0H0V.05H0V0Z"/></symbol><symbol id="a" data-name="a" viewBox="0 0 0.05 0.05"><path d="M.05,0h0V0H0V0H0l0,0V0ZM0,0H0Z"/></symbol><symbol id="b" data-name="b" viewBox="0 0 0.05 0.05"><path d="M0,0H0Zm0,0V0H0V0H0v0H0A0,0,0,0,0,0,0Z"/></symbol><symbol id="e" data-name="e" viewBox="0 0 0.03 0.05"><path d="M0,.05H0V0H0V0H0V.05Z"/></symbol><symbol id="i" data-name="i" viewBox="0 0 0.05 0.06"><path d="M0,0v0h0V0H0V0H0l0,0A0,0,0,0,0,0,0ZM0,0H0Z"/></symbol><symbol id="m" data-name="m" viewBox="0 0 0.05 0.06"><path d="M0,0H0ZM0,0v0a0,0,0,0,0,0,0h0V0H0V.06H0Z"/></symbol><symbol id="h" data-name="h" viewBox="0 0 0.05 0.06"><path d="M0,.06H0v0h0L0,0V0H0V0H0Z"/></symbol><symbol id="l" data-name="l" viewBox="0 0 0.06 0.06"><path d="M0,.05V0H0Zm0,0h0a0,0,0,0,0,0,0V0H0V.05Z"/></symbol><symbol id="w" data-name="w" viewBox="0 0 0.02 0.06"><path d="M0,.06H0V0H0Z"/></symbol><symbol id="k" data-name="k" viewBox="0 0 0.05 0.06"><path d="M0,.06H0v0h0L0,0l0,0H0V0H0Z"/></symbol><symbol id="g" data-name="g" viewBox="0 0 0.05 0.05"><path d="M0,.05V0h0S0,0,0,0H0V0H0l0,0Z"/></symbol><symbol id="f" data-name="f" viewBox="0 0 0.05 0.05"><path d="M.05,0V0H0V0H0V0H0V.05H0v0A0,0,0,0,0,.05,0Z"/></symbol><symbol id="j" data-name="j" viewBox="0 0 0.05 0.05"><path d="M0,.05H.05V0H0V0H0Zm0,0V0H0v0Z"/></symbol><symbol id="d" data-name="d" viewBox="0 0 0.05 0.05"><path d="M0,0H0Zm0,0V0h0L0,0H0V0H0Z"/></symbol><symbol id="v" data-name="v" viewBox="0 0 0.05 0.05"><path d="M0,.05H0v0h0L0,0H0Z"/></symbol><symbol id="u" data-name="u" viewBox="0 0 0.02 0.06"><path d="M0,.05H0V0H0Zm0,0H0Z"/></symbol><symbol id="t" data-name="t" viewBox="0 0 0.03 0.06"><path d="M0,.06H0V0H0V0H0v0H0Z"/></symbol><symbol id="s" data-name="s" viewBox="0 0 0.08 0.05"><path d="M.05,0s0,0,0,0V0h0V0h0V0h0V0H0V0H0V0H0V.05H0V0Z"/></symbol><symbol id="r" data-name="r" viewBox="0 0 0.05 0.06"><path d="M.05,0V0H0V0H0V0H0V.06H0v0A0,0,0,0,0,.05,0Z"/></symbol><symbol id="q" data-name="q" viewBox="0 0 0.06 0.05"><path d="M0,.05H0l0,0v0h0V0h0L0,0V0H0Z"/></symbol><symbol id="p" data-name="p" viewBox="0 0 0.05 0.05"><path d="M0,0v0H0V0H0v0h0V0H0Z"/></symbol><symbol id="o" data-name="o" viewBox="0 0 0.02 0.08"><path d="M0,.06H0V0L0,0Zm0,0H0v0H0Z"/></symbol><symbol id="n" data-name="n" viewBox="0 0 0.05 0.05"><path d="M.05.05V0h0V0H0V0H0l0,0Z"/></symbol></defs><title>Fountain Pen</title><path d="M452.81,77.74c3.05-3.89,8.17,1.47,5.13,5.36q-44,56.1-88,112.21c7.3.41,16,4.17,25.3,10.22,26.41,17.24,72.83,67.12,77.54,102.22l6.57-7.2L568.78,203c3.32-3.61,8.06,2.22,4.75,5.83l-89.8,98c-10.57,11.54-21,23.89-34.5,30.72-12.26,6-9.47,7.11-12.73,18.9-3.34,12.08-12.78,18.51-23.64,16.92-3.95-.58-11.87-3.82-13.59-8.38L392,372.71c-15.29,16.49-30.43,33.3-44.11,51.61a303.16,303.16,0,0,0-30,49.21c-10.79,22-16.16,32.9-56.2,44.09-6.41,1.79-12.86,3.23-19.44,4.69-16.11,3.59-32.92,7.32-48.09,16a353.86,353.86,0,0,0-35.8,23.51c-5.4,4-7.53,5.58-8.14,10.36-1.22,9.76-9.42,17-17.9,15.57-5.15-.87-9.35-5.14-11.38-10.59a16.88,16.88,0,0,1,8.4-21.54c3-1.48,4.83-2.34,6.67-5.57,10.5-18.5,18.48-42.07,24.67-60.37,4.6-13.58,9.12-26.62,15.79-39.1,7.5-14,15.26-21.87,25.44-32.58,40.95-43,81.69-86.41,119.16-134.83-10.41-11.07-10.5-32,1.74-41.18,4.95-4.19,14.07-4.06,16.3-6.82,1.43-1.76,2.74-5.16,4.86-11.1,4.12-11.55,10.84-21.18,17.88-30.31,30-38.9,60.63-77.35,90.91-116ZM333.29,410.47c-2,2.64-5.47-.84-3.49-3.49,13.81-18.5,29.1-35.48,44.54-52.14,2.23-2.39,5.37,1.52,3.15,3.91-15.32,16.53-30.5,33.37-44.2,51.72Zm118-116.56c1.35,3.14-2.79,5.5-4.14,2.36-4.12-9.67-10.9-19.18-17.33-26.93-2.11-2.53,1.22-6.23,3.32-3.7,6.77,8.15,13.82,18.1,18.15,28.27ZM238.92,428.61c4.73.22,7.1,5.23,5.29,11.18-1.76,5.8-7.94,11.93-13.53,10l-25.46,32.63a81.31,81.31,0,0,1,20.69-9c16.23-4.38,29.42-4.27,45.93-2.67,14.89,1.45,36.84,4.36,46-12.9a297.25,297.25,0,0,1,24.85-38.78c13.84-18.53,29.15-35.55,44.63-52.24,6.07-6.55,12.17-13.05,18.25-19.59-7.44-12.23-20.22-28.29-33.65-43-11.8-12.93-24-24.73-33.51-31.86-38.93,52.59-81.62,98.65-124.7,144-6.79,15.08-5.18,42-11.24,61.6l24.69-31.64a11,11,0,0,1-.06-7.43c1.8-6,7.1-10.59,11.83-10.36Zm71.56,43.9c-11.32,6.29-26.43,4.83-39,3.61-16-1.56-28.71-1.73-44.5,2.54-10.65,2.87-27.53,11-35.3,21.26l-42.07,55.24c-2,2.6-5.46-1-3.43-3.58l42.09-55.26c4.76-6.26,7.72-12.85,10.12-20.9,5.45-18.23,4.15-34.07,7.85-51.1-9.47,9.95-16.86,17.42-23.81,30.42-6.48,12.1-10.78,24.66-15.23,37.82-6.31,18.66-14.45,42.68-25.33,61.84-2.65,4.66-5.44,6.42-9.73,8.56-4,2-6.68,5.86-4.76,11,1.06,2.85,3.25,5.37,6,5.83,4.7.79,9.39-3.35,10.07-8.78,1.06-8.41,4-10.55,11.26-16a361.54,361.54,0,0,1,36.47-24c16-9.11,33.3-13,49.86-16.64,6.6-1.47,13.08-2.91,19.11-4.6,35.27-9.86,41.44-19.33,50.37-37.35Zm93.57-112.7c3.87,5.26,9.76,1.74,5.3-5.71Zm-71.68-91.53c-10.26-6.14-14.39,1.25-6.64,8.82Q329.07,272.72,332.37,268.28Zm205.74-57.65c2.21-2.4,5.37,1.48,3.16,3.89l-37.89,41.36c-2.21,2.4-5.38-1.49-3.17-3.89Zm-172.49-9.76c-6.09,8-11.76,16.52-15.21,26.19-2.21,6.18-3.71,10-5.62,12.74a54.81,54.81,0,0,1,10.28,5.37c11.79,7.68,40,34.39,59.92,60.14,8.8,11.37,16.05,22.7,19.77,32.47l.13-.15c2.31-2.61,5.72-4.5,11.57-7.45,8.16-4.13,15.31-10.73,22.05-17.83C468.25,279.6,417.17,226,393,210.17c-10.69-7-20.4-10.73-27.36-9.29Zm-32.76,45a15.21,15.21,0,0,0-12.07,12.72c3.8-2,8.24-.79,11.89,1,10.43,5.18,27.71,21.05,44,38.88,16.43,18,32,38.15,38.56,51.44,2.3,4.66,3.89,10.76,1.19,15.65,8.58-.27,15.66-8.8,13.83-18.92-1.67-9.16-9.84-22.33-20.42-36-19.48-25.17-46.81-51.13-58.15-58.52-5.32-3.46-12.57-7.09-18.83-6.29Z" transform="translate(-119.79 -76.39)"/><use width="0.05" height="0.06" transform="matrix(8849.6, 0, 0, -10230.18, 69.14, 1151.1)" xlink:href="#x"/><use width="0.03" height="0.05" transform="matrix(11799.47, 0, 0, -13640.25, 92.23, 1151.1)" xlink:href="#c"/><use width="0.05" height="0.05" transform="matrix(11799.47, 0, 0, -13640.25, 0.08, 1151.1)" xlink:href="#a"/><use width="0.05" height="0.05" transform="matrix(11799.47, 0, 0, -13640.25, 0.11, 1151.1)" xlink:href="#b"/><use width="0.03" height="0.05" transform="matrix(11799.47, 0, 0, -13640.25, 92.34, 1151.1)" xlink:href="#e"/><use width="0.05" height="0.05" transform="matrix(11799.47, 0, 0, -13640.25, 0.18, 1151.1)" xlink:href="#a"/><use width="0.05" height="0.06" transform="matrix(8849.6, 0, 0, -10230.18, 69.36, 1151.1)" xlink:href="#i"/><use width="0.05" height="0.06" transform="matrix(8849.6, 0, 0, -10230.18, 69.42, 1151.1)" xlink:href="#m"/><use width="0.05" height="0.06" transform="matrix(8849.6, 0, 0, -10230.18, 69.46, 1151.1)" xlink:href="#h"/><use width="0.06" height="0.06" transform="matrix(8849.6, 0, 0, -10230.18, 0.38, 1151.1)" xlink:href="#l"/><use width="0.02" height="0.06" transform="matrix(8849.6, 0, 0, -10230.18, 207.84, 1151.1)" xlink:href="#w"/><use width="0.05" height="0.05" transform="matrix(11799.47, 0, 0, -13640.25, 0.45, 1151.1)" xlink:href="#a"/><use width="0.05" height="0.06" transform="matrix(8849.6, 0, 0, -10230.18, 69.63, 1151.1)" xlink:href="#k"/><use width="0.05" height="0.05" transform="matrix(11799.47, 0, 0, -13640.25, 0.53, 1151.1)" xlink:href="#g"/><use width="0.05" height="0.05" transform="matrix(11799.47, 0, 0, -13640.25, 0.56, 1151.1)" xlink:href="#b"/><use width="0.05" height="0.05" transform="matrix(11799.47, 0, 0, -13640.25, 0.6, 1151.1)" xlink:href="#f"/><use width="0.05" height="0.06" transform="matrix(8849.6, 0, 0, -10230.18, 69.78, 1151.1)" xlink:href="#i"/><use width="0.03" height="0.05" transform="matrix(11799.47, 0, 0, -13640.25, 92.87, 1151.1)" xlink:href="#c"/><use width="0.05" height="0.05" transform="matrix(11799.47, 0, 0, -13640.25, 0.74, 1151.1)" xlink:href="#j"/><use width="0.05" height="0.05" transform="matrix(11799.47, 0, 0, -13640.25, 0.78, 1151.1)" xlink:href="#b"/><use width="0.05" height="0.05" transform="matrix(11799.47, 0, 0, -13640.25, 0.82, 1151.1)" xlink:href="#f"/><use width="0.05" height="0.05" transform="matrix(11799.47, 0, 0, -13640.25, 0.86, 1151.1)" xlink:href="#b"/><use width="0.05" height="0.05" transform="matrix(11799.47, 0, 0, -13640.25, 0.9, 1151.1)" xlink:href="#g"/><use width="0.05" height="0.05" transform="matrix(11799.47, 0, 0, -13640.25, 0.93, 1151.1)" xlink:href="#d"/><use width="0.05" height="0.05" transform="matrix(11799.47, 0, 0, -13640.25, 0.98, 1151.1)" xlink:href="#v"/><use width="0.05" height="0.05" transform="matrix(11799.47, 0, 0, -13640.25, 1.01, 1151.1)" xlink:href="#g"/><use width="0.05" height="0.06" transform="matrix(8849.6, 0, 0, -10230.18, 70.18, 1151.1)" xlink:href="#k"/><use width="0.05" height="0.06" transform="matrix(8849.6, 0, 0, -10230.18, 70.22, 1151.1)" xlink:href="#h"/><use width="0.02" height="0.06" transform="matrix(8849.6, 0, 0, -10230.18, 208.54, 1151.1)" xlink:href="#u"/><use width="0.03" height="0.06" transform="matrix(8849.6, 0, 0, -10230.18, 138.28, 1151.16)" xlink:href="#t"/><use width="0.03" height="0.05" transform="matrix(11799.47, 0, 0, -13640.25, 92.21, 1151.16)" xlink:href="#c"/><use width="0.05" height="0.05" transform="matrix(11799.47, 0, 0, -13640.25, 0.06, 1151.16)" xlink:href="#d"/><use width="0.08" height="0.05" transform="matrix(7079.68, 0, 0, -8184.15, 0.1, 1023.28)" xlink:href="#s"/><use width="0.03" height="0.05" transform="matrix(11799.47, 0, 0, -13640.25, 92.36, 1151.16)" xlink:href="#e"/><use width="0.05" height="0.06" transform="matrix(8849.6, 0, 0, -10230.18, 69.34, 1151.16)" xlink:href="#r"/><use width="0.05" height="0.05" transform="matrix(11799.47, 0, 0, -13640.25, 0.25, 1151.16)" xlink:href="#a"/><use width="0.06" height="0.05" transform="matrix(8849.6, 0, 0, -10230.18, 0.31, 1071.24)" xlink:href="#q"/><use width="0.05" height="0.05" transform="matrix(11799.47, 0, 0, -13640.25, 0.36, 1151.16)" xlink:href="#d"/><use width="0.05" height="0.05" transform="matrix(11799.47, 0, 0, -13640.25, 0.4, 1151.16)" xlink:href="#p"/><use width="0.05" height="0.05" transform="matrix(11799.47, 0, 0, -13640.25, 0.44, 1151.16)" xlink:href="#f"/><use width="0.05" height="0.05" transform="matrix(11799.47, 0, 0, -13640.25, 0.5, 1151.16)" xlink:href="#j"/><use width="0.03" height="0.05" transform="matrix(11799.47, 0, 0, -13640.25, 92.73, 1151.16)" xlink:href="#c"/><use width="0.05" height="0.05" transform="matrix(11799.47, 0, 0, -13640.25, 0.57, 1151.16)" xlink:href="#d"/><use width="0.02" height="0.08" transform="matrix(7079.68, 0, 0, -8184.15, 221.85, 1151.16)" xlink:href="#o"/><use width="0.05" height="0.05" transform="matrix(11799.47, 0, 0, -13640.25, 0.63, 1151.16)" xlink:href="#a"/><use width="0.05" height="0.05" transform="matrix(11799.47, 0, 0, -13640.25, 0.67, 1151.16)" xlink:href="#n"/><use width="0.03" height="0.05" transform="matrix(11799.47, 0, 0, -13640.25, 92.89, 1151.16)" xlink:href="#e"/></svg>